{
  "accessors": [
    {
      "bufferView": 0,
      "componentType": 5126,
      "count": 36,
      "type": "VEC3",
      "max": [
        0.0625,
        0.0625,
        0.0625
      ],
      "min": [
        0.0,
        0.0,
        0.0
      ]
    },
    {
      "bufferView": 1,
      "componentType": 5126,
      "count": 36,
      "type": "VEC2",
      "max": [
        0.359375,
        0.328125
      ],
      "min": [
        0.171875,
        0.234375
      ]
    },
    {
      "bufferView": 2,
      "componentType": 5126,
      "count": 36,
      "type": "VEC3",
      "max": [
        0.0625,
        0.0625,
        0.0625
      ],
      "min": [
        0.0,
        0.0,
        0.0
      ]
    },
    {
      "bufferView": 3,
      "componentType": 5126,
      "count": 36,
      "type": "VEC2",
      "max": [
        0.125,
        0.40625
      ],
      "min": [
        0.0,
        0.34375
      ]
    },
    {
      "bufferView": 4,
      "componentType": 5126,
      "count": 36,
      "type": "VEC3",
      "max": [
        0.0625,
        0.0625,
        0.0625
      ],
      "min": [
        0.0,
        0.0,
        0.0
      ]
    },
    {
      "bufferView": 5,
      "componentType": 5126,
      "count": 36,
      "type": "VEC2",
      "max": [
        0.0625,
        0.09375
      ],
      "min": [
        0.0,
        0.0625
      ]
    },
    {
      "bufferView": 6,
      "componentType": 5126,
      "count": 36,
      "type": "VEC3",
      "max": [
        0.0625,
        0.0625,
        0.0625
      ],
      "min": [
        0.0,
        0.0,
        0.0
      ]
    },
    {
      "bufferView": 7,
      "componentType": 5126,
      "count": 36,
      "type": "VEC2",
      "max": [
        0.0625,
        0.09375
      ],
      "min": [
        0.0,
        0.0625
      ]
    },
    {
      "bufferView": 8,
      "componentType": 5126,
      "count": 36,
      "type": "VEC3",
      "max": [
        0.0625,
        0.0625,
        0.0625
      ],
      "min": [
        0.0,
        0.0,
        0.0
      ]
    },
    {
      "bufferView": 9,
      "componentType": 5126,
      "count": 36,
      "type": "VEC2",
      "max": [
        0.421875,
        0.046875
      ],
      "min": [
        0.328125,
        0.0
      ]
    },
    {
      "bufferView": 10,
      "componentType": 5126,
      "count": 36,
      "type": "VEC3",
      "max": [
        0.0625,
        0.0625,
        0.0625
      ],
      "min": [
        0.0,
        0.0,
        0.0
      ]
    },
    {
      "bufferView": 11,
      "componentType": 5126,
      "count": 36,
      "type": "VEC2",
      "max": [
        0.703125,
        0.125
      ],
      "min": [
        0.453125,
        0.0
      ]
    },
    {
      "bufferView": 12,
      "componentType": 5126,
      "count": 36,
      "type": "VEC3",
      "max": [
        0.0625,
        0.0625,
        0.0625
      ],
      "min": [
        0.0,
        0.0,
        0.0
      ]
    },
    {
      "bufferView": 13,
      "componentType": 5126,
      "count": 36,
      "type": "VEC2",
      "max": [
        0.546875,
        0.1875
      ],
      "min": [
        0.453125,
        0.140625
      ]
    },
    {
      "bufferView": 14,
      "componentType": 5126,
      "count": 36,
      "type": "VEC3",
      "max": [
        0.0625,
        0.0625,
        0.0625
      ],
      "min": [
        0.0,
        0.0,
        0.0
      ]
    },
    {
      "bufferView": 15,
      "componentType": 5126,
      "count": 36,
      "type": "VEC2",
      "max": [
        0.703125,
        0.328125
      ],
      "min": [
        0.328125,
        0.203125
      ]
    },
    {
      "bufferView": 16,
      "componentType": 5126,
      "count": 36,
      "type": "VEC3",
      "max": [
        0.0625,
        0.0625,
        0.0625
      ],
      "min": [
        0.0,
        0.0,
        0.0
      ]
    },
    {
      "bufferView": 17,
      "componentType": 5126,
      "count": 36,
      "type": "VEC2",
      "max": [
        0.703125,
        0.328125
      ],
      "min": [
        0.328125,
        0.203125
      ]
    },
    {
      "bufferView": 18,
      "componentType": 5126,
      "count": 36,
      "type": "VEC3",
      "max": [
        0.0625,
        0.0625,
        0.0625
      ],
      "min": [
        0.0,
        0.0,
        0.0
      ]
    },
    {
      "bufferView": 19,
      "componentType": 5126,
      "count": 36,
      "type": "VEC2",
      "max": [
        0.0625,
        0.046875
      ],
      "min": [
        0.0,
        0.0
      ]
    },
    {
      "bufferView": 20,
      "componentType": 5126,
      "count": 36,
      "type": "VEC3",
      "max": [
        0.0625,
        0.0625,
        0.0625
      ],
      "min": [
        0.0,
        0.0,
        0.0
      ]
    },
    {
      "bufferView": 21,
      "componentType": 5126,
      "count": 36,
      "type": "VEC2",
      "max": [
        0.0625,
        0.046875
      ],
      "min": [
        0.0,
        0.0
      ]
    },
    {
      "bufferView": 22,
      "componentType": 5126,
      "count": 36,
      "type": "VEC3",
      "max": [
        0.0625,
        0.0625,
        0.0625
      ],
      "min": [
        0.0,
        0.0,
        0.0
      ]
    },
    {
      "bufferView": 23,
      "componentType": 5126,
      "count": 36,
      "type": "VEC2",
      "max": [
        0.0625,
        0.046875
      ],
      "min": [
        0.0,
        0.0
      ]
    },
    {
      "bufferView": 24,
      "componentType": 5126,
      "count": 36,
      "type": "VEC3",
      "max": [
        0.0625,
        0.0625,
        0.0625
      ],
      "min": [
        0.0,
        0.0,
        0.0
      ]
    },
    {
      "bufferView": 25,
      "componentType": 5126,
      "count": 36,
      "type": "VEC2",
      "max": [
        0.0625,
        0.046875
      ],
      "min": [
        0.0,
        0.0
      ]
    },
    {
      "bufferView": 26,
      "componentType": 5126,
      "count": 36,
      "type": "VEC3",
      "max": [
        0.0625,
        0.0625,
        0.0625
      ],
      "min": [
        0.0,
        0.0,
        0.0
      ]
    },
    {
      "bufferView": 27,
      "componentType": 5126,
      "count": 36,
      "type": "VEC2",
      "max": [
        0.15625,
        0.328125
      ],
      "min": [
        0.0,
        0.234375
      ]
    },
    {
      "bufferView": 28,
      "componentType": 5126,
      "count": 36,
      "type": "VEC3",
      "max": [
        0.0625,
        0.0625,
        0.0625
      ],
      "min": [
        0.0,
        0.0,
        0.0
      ]
    },
    {
      "bufferView": 29,
      "componentType": 5126,
      "count": 36,
      "type": "VEC2",
      "max": [
        0.4375,
        0.21875
      ],
      "min": [
        0.0,
        0.0
      ]
    },
    {
      "bufferView": 30,
      "componentType": 5126,
      "count": 2,
      "type": "SCALAR",
      "max": [
        1.0
      ],
      "min": [
        0.0
      ]
    },
    {
      "bufferView": 31,
      "componentType": 5126,
      "count": 2,
      "type": "VEC3",
      "max": [
        -0.15625,
        0.0625,
        -0.0625
      ],
      "min": [
        -0.15625,
        0.0625,
        -0.0625
      ]
    }
  ],
  "animations": [
    {
      "name": "Idle",
      "channels": [
        {
          "sampler": 0,
          "target": {
            "node": 13,
            "path": "translation"
          }
        }
      ],
      "samplers": [
        {
          "input": 30,
          "interpolation": "LINEAR",
          "output": 31
        }
      ]
    }
  ],
  "asset": {
    "generator": "Cout970\u0027s Modeler glTF v2 Exporter",
    "version": "2.0"
  },
  "buffers": [
    {
      "uri": "essence_collector.bin",
      "byteLength": 10832
    }
  ],
  "bufferViews": [
    {
      "buffer": 0,
      "byteLength": 432,
      "target": 34962
    },
    {
      "buffer": 0,
      "byteOffset": 432,
      "byteLength": 288,
      "target": 34962
    },
    {
      "buffer": 0,
      "byteOffset": 720,
      "byteLength": 432,
      "target": 34962
    },
    {
      "buffer": 0,
      "byteOffset": 1152,
      "byteLength": 288,
      "target": 34962
    },
    {
      "buffer": 0,
      "byteOffset": 1440,
      "byteLength": 432,
      "target": 34962
    },
    {
      "buffer": 0,
      "byteOffset": 1872,
      "byteLength": 288,
      "target": 34962
    },
    {
      "buffer": 0,
      "byteOffset": 2160,
      "byteLength": 432,
      "target": 34962
    },
    {
      "buffer": 0,
      "byteOffset": 2592,
      "byteLength": 288,
      "target": 34962
    },
    {
      "buffer": 0,
      "byteOffset": 2880,
      "byteLength": 432,
      "target": 34962
    },
    {
      "buffer": 0,
      "byteOffset": 3312,
      "byteLength": 288,
      "target": 34962
    },
    {
      "buffer": 0,
      "byteOffset": 3600,
      "byteLength": 432,
      "target": 34962
    },
    {
      "buffer": 0,
      "byteOffset": 4032,
      "byteLength": 288,
      "target": 34962
    },
    {
      "buffer": 0,
      "byteOffset": 4320,
      "byteLength": 432,
      "target": 34962
    },
    {
      "buffer": 0,
      "byteOffset": 4752,
      "byteLength": 288,
      "target": 34962
    },
    {
      "buffer": 0,
      "byteOffset": 5040,
      "byteLength": 432,
      "target": 34962
    },
    {
      "buffer": 0,
      "byteOffset": 5472,
      "byteLength": 288,
      "target": 34962
    },
    {
      "buffer": 0,
      "byteOffset": 5760,
      "byteLength": 432,
      "target": 34962
    },
    {
      "buffer": 0,
      "byteOffset": 6192,
      "byteLength": 288,
      "target": 34962
    },
    {
      "buffer": 0,
      "byteOffset": 6480,
      "byteLength": 432,
      "target": 34962
    },
    {
      "buffer": 0,
      "byteOffset": 6912,
      "byteLength": 288,
      "target": 34962
    },
    {
      "buffer": 0,
      "byteOffset": 7200,
      "byteLength": 432,
      "target": 34962
    },
    {
      "buffer": 0,
      "byteOffset": 7632,
      "byteLength": 288,
      "target": 34962
    },
    {
      "buffer": 0,
      "byteOffset": 7920,
      "byteLength": 432,
      "target": 34962
    },
    {
      "buffer": 0,
      "byteOffset": 8352,
      "byteLength": 288,
      "target": 34962
    },
    {
      "buffer": 0,
      "byteOffset": 8640,
      "byteLength": 432,
      "target": 34962
    },
    {
      "buffer": 0,
      "byteOffset": 9072,
      "byteLength": 288,
      "target": 34962
    },
    {
      "buffer": 0,
      "byteOffset": 9360,
      "byteLength": 432,
      "target": 34962
    },
    {
      "buffer": 0,
      "byteOffset": 9792,
      "byteLength": 288,
      "target": 34962
    },
    {
      "buffer": 0,
      "byteOffset": 10080,
      "byteLength": 432,
      "target": 34962
    },
    {
      "buffer": 0,
      "byteOffset": 10512,
      "byteLength": 288,
      "target": 34962
    },
    {
      "buffer": 0,
      "byteOffset": 10800,
      "byteLength": 8
    },
    {
      "buffer": 0,
      "byteOffset": 10808,
      "byteLength": 24
    }
  ],
  "images": [
    {
      "uri": "bugmagic:textures/entity/essence_collector.png"
    }
  ],
  "materials": [
    {
      "pbrMetallicRoughness": {
        "baseColorFactor": [
          1.0,
          1.0,
          1.0,
          1.0
        ],
        "baseColorTexture": {
          "index": 0,
          "texCoord": 0
        },
        "metallicFactor": 1.0,
        "roughnessFactor": 1.0
      },
      "alphaMode": "MASK",
      "alphaCutoff": 0.5,
      "doubleSided": false
    }
  ],
  "meshes": [
    {
      "primitives": [
        {
          "attributes": {
            "POSITION": 0,
            "TEXCOORD_0": 1
          },
          "material": 0,
          "mode": 4
        }
      ]
    },
    {
      "primitives": [
        {
          "attributes": {
            "POSITION": 2,
            "TEXCOORD_0": 3
          },
          "material": 0,
          "mode": 4
        }
      ]
    },
    {
      "primitives": [
        {
          "attributes": {
            "POSITION": 4,
            "TEXCOORD_0": 5
          },
          "material": 0,
          "mode": 4
        }
      ]
    },
    {
      "primitives": [
        {
          "attributes": {
            "POSITION": 6,
            "TEXCOORD_0": 7
          },
          "material": 0,
          "mode": 4
        }
      ]
    },
    {
      "primitives": [
        {
          "attributes": {
            "POSITION": 8,
            "TEXCOORD_0": 9
          },
          "material": 0,
          "mode": 4
        }
      ]
    },
    {
      "primitives": [
        {
          "attributes": {
            "POSITION": 10,
            "TEXCOORD_0": 11
          },
          "material": 0,
          "mode": 4
        }
      ]
    },
    {
      "primitives": [
        {
          "attributes": {
            "POSITION": 12,
            "TEXCOORD_0": 13
          },
          "material": 0,
          "mode": 4
        }
      ]
    },
    {
      "primitives": [
        {
          "attributes": {
            "POSITION": 14,
            "TEXCOORD_0": 15
          },
          "material": 0,
          "mode": 4
        }
      ]
    },
    {
      "primitives": [
        {
          "attributes": {
            "POSITION": 16,
            "TEXCOORD_0": 17
          },
          "material": 0,
          "mode": 4
        }
      ]
    },
    {
      "primitives": [
        {
          "attributes": {
            "POSITION": 18,
            "TEXCOORD_0": 19
          },
          "material": 0,
          "mode": 4
        }
      ]
    },
    {
      "primitives": [
        {
          "attributes": {
            "POSITION": 20,
            "TEXCOORD_0": 21
          },
          "material": 0,
          "mode": 4
        }
      ]
    },
    {
      "primitives": [
        {
          "attributes": {
            "POSITION": 22,
            "TEXCOORD_0": 23
          },
          "material": 0,
          "mode": 4
        }
      ]
    },
    {
      "primitives": [
        {
          "attributes": {
            "POSITION": 24,
            "TEXCOORD_0": 25
          },
          "material": 0,
          "mode": 4
        }
      ]
    },
    {
      "primitives": [
        {
          "attributes": {
            "POSITION": 26,
            "TEXCOORD_0": 27
          },
          "material": 0,
          "mode": 4
        }
      ]
    },
    {
      "primitives": [
        {
          "attributes": {
            "POSITION": 28,
            "TEXCOORD_0": 29
          },
          "material": 0,
          "mode": 4
        }
      ]
    }
  ],
  "nodes": [
    {
      "mesh": 0,
      "rotation": [
        -0.13052619,
        0.0,
        0.0,
        0.9914449
      ],
      "scale": [
        4.0,
        4.0,
        2.0
      ],
      "translation": [
        -0.125,
        0.16875000298023224,
        -0.5
      ],
      "name": "Top"
    },
    {
      "mesh": 1,
      "rotation": [
        -0.13052619,
        0.0,
        0.0,
        0.9914449
      ],
      "scale": [
        2.0,
        2.0,
        2.0
      ],
      "translation": [
        -0.0625,
        0.21875,
        -0.5625
      ],
      "name": "Bottom"
    },
    {
      "children": [
        0,
        1
      ],
      "name": "Butt"
    },
    {
      "mesh": 2,
      "rotation": [
        0.13052619,
        0.0,
        0.0,
        0.9914449
      ],
      "scale": [
        1.0,
        1.0,
        1.0
      ],
      "translation": [
        -0.03125,
        0.125,
        0.375
      ],
      "name": "Top"
    },
    {
      "mesh": 3,
      "rotation": [
        0.25881904,
        0.0,
        0.0,
        0.9659258
      ],
      "scale": [
        1.0,
        1.0,
        1.0
      ],
      "translation": [
        -0.03125,
        0.125,
        0.375
      ],
      "name": "Middle"
    },
    {
      "mesh": 4,
      "rotation": [
        0.38268343,
        0.0,
        0.0,
        0.9238795
      ],
      "scale": [
        1.0,
        1.0,
        2.0
      ],
      "translation": [
        -0.03125,
        0.125,
        0.375
      ],
      "name": "Bottom"
    },
    {
      "children": [
        3,
        4,
        5
      ],
      "name": "Nose"
    },
    {
      "mesh": 5,
      "rotation": [
        0.0,
        0.0,
        0.0,
        1.0
      ],
      "scale": [
        4.0,
        4.0,
        4.0
      ],
      "translation": [
        -0.125,
        0.125,
        0.1875
      ],
      "name": "Head"
    },
    {
      "mesh": 6,
      "rotation": [
        0.0,
        0.0,
        0.0,
        1.0
      ],
      "scale": [
        2.0,
        2.0,
        1.0
      ],
      "translation": [
        -0.0625,
        0.1875,
        0.125
      ],
      "name": "Neck"
    },
    {
      "children": [
        6,
        7,
        8
      ],
      "name": "Head"
    },
    {
      "mesh": 7,
      "rotation": [
        0.0,
        0.0,
        0.0,
        1.0
      ],
      "scale": [
        4.0,
        0.0,
        8.0
      ],
      "translation": [
        0.1875,
        0.375,
        -0.4375
      ],
      "name": "Left"
    },
    {
      "mesh": 8,
      "rotation": [
        0.0,
        0.0,
        0.0,
        1.0
      ],
      "scale": [
        4.0,
        0.0,
        8.0
      ],
      "translation": [
        -0.4375,
        0.375,
        -0.4375
      ],
      "name": "Right"
    },
    {
      "children": [
        10,
        11
      ],
      "name": "Wings"
    },
    {
      "mesh": 9,
      "rotation": [
        0.38268343,
        0.0,
        0.0,
        0.9238795
      ],
      "scale": [
        1.0,
        2.0,
        1.0
      ],
      "translation": [
        -0.15625,
        0.0625,
        -0.0625
      ],
      "name": "Right"
    },
    {
      "mesh": 10,
      "rotation": [
        0.38268343,
        0.0,
        0.0,
        0.9238795
      ],
      "scale": [
        1.0,
        2.0,
        1.0
      ],
      "translation": [
        0.09375,
        0.0625,
        -0.0625
      ],
      "name": "Left"
    },
    {
      "children": [
        13,
        14
      ],
      "name": "Front"
    },
    {
      "mesh": 11,
      "rotation": [
        0.38268343,
        0.0,
        0.0,
        0.9238795
      ],
      "scale": [
        1.0,
        2.0,
        1.0
      ],
      "translation": [
        0.09375,
        0.0625,
        -0.4375
      ],
      "name": "Left"
    },
    {
      "mesh": 12,
      "rotation": [
        0.38268343,
        0.0,
        0.0,
        0.9238795
      ],
      "scale": [
        1.0,
        2.0,
        1.0
      ],
      "translation": [
        -0.15625,
        0.0625,
        -0.4375
      ],
      "name": "Right"
    },
    {
      "children": [
        16,
        17
      ],
      "name": "Back"
    },
    {
      "children": [
        15,
        18
      ],
      "name": "Legs"
    },
    {
      "mesh": 13,
      "rotation": [
        0.0,
        0.0,
        0.0,
        1.0
      ],
      "scale": [
        4.0,
        5.0,
        1.0
      ],
      "translation": [
        -0.125,
        0.125,
        0.0625
      ],
      "name": "Top"
    },
    {
      "mesh": 14,
      "rotation": [
        0.0,
        0.0,
        0.0,
        1.0
      ],
      "scale": [
        6.0,
        6.0,
        8.0
      ],
      "translation": [
        -0.1875,
        0.125,
        -0.4375
      ],
      "name": "Middle"
    },
    {
      "children": [
        2,
        9,
        12,
        19,
        20,
        21
      ],
      "name": "Body"
    },
    {
      "children": [
        22
      ],
      "name": "root"
    }
  ],
  "samplers": [
    {
      "magFilter": 9728,
      "minFilter": 9728,
      "wrapS": 10497,
      "wrapT": 10497,
      "name": "pixelated"
    }
  ],
  "scene": 0,
  "scenes": [
    {
      "nodes": [
        23
      ]
    }
  ],
  "textures": [
    {
      "sampler": 0,
      "source": 0
    }
  ]
}